<?xml version="1.0" encoding="iso-8859-1"?>
<!-- Generator: Adobe Illustrator 16.0.0, SVG Export Plug-In . SVG Version: 6.00 Build 0)  -->
<!DOCTYPE svg PUBLIC "-//W3C//DTD SVG 1.1//EN" "http://www.w3.org/Graphics/SVG/1.1/DTD/svg11.dtd">
<svg version="1.1" id="Capa_1" xmlns="http://www.w3.org/2000/svg" xmlns:xlink="http://www.w3.org/1999/xlink" x="0px" y="0px"
	 width="420.75px" height="420.75px" viewBox="0 0 420.75 420.75" style="enable-background:new 0 0 420.75 420.75;"
	 xml:space="preserve">
<g>
	<path d="M413.444,164.317c-17.776,12.909-71.126,51.236-193.507,51.236h-19.125c-122.381,0-175.73-38.327-193.507-51.236
		C3.031,161.219,0,162.462,0,167.741v143.438c0,5.278,2.18,13.282,5.623,17.289c15.08,17.614,64.528,59.211,195.19,59.211h19.125
		c130.662,0,180.109-41.597,195.189-59.211c3.442-4.007,5.623-12.011,5.623-17.289V167.741
		C420.75,162.462,417.719,161.219,413.444,164.317z M280.966,330.208l-30.553-13.426c-3.739-1.645-8.893-0.43-11.771,2.477
		c-13.865,14.01-59.326,36.481-91.829-3.738c-2.572-3.175-7.679-8.73-6.904-12.747c10.413-53.703,73.124-55.262,99.297-28.937
		c2.878,2.897,6.942,3.729,10.031,1.062l22.873-19.728c3.099-2.668,4.887-1.597,3.997,2.391l-6.148,27.646
		c-0.89,3.987-0.182,10.213,1.568,13.903l13.023,27.397C286.32,330.188,284.704,331.852,280.966,330.208z"/>
	<path d="M210.375,33.072C94.19,33.072,0,70.174,0,115.95c0,45.766,94.19,82.878,210.375,82.878S420.75,161.726,420.75,115.95
		S326.56,33.072,210.375,33.072z M210.375,173.115c-95.94,0-173.722-23.466-173.722-57.576s77.772-61.754,173.722-61.754
		s173.722,27.645,173.722,61.754C384.097,149.658,306.315,173.115,210.375,173.115z"/>
	<ellipse cx="212.766" cy="114.353" rx="142.644" ry="44.628"/>
</g>
<g>
</g>
<g>
</g>
<g>
</g>
<g>
</g>
<g>
</g>
<g>
</g>
<g>
</g>
<g>
</g>
<g>
</g>
<g>
</g>
<g>
</g>
<g>
</g>
<g>
</g>
<g>
</g>
<g>
</g>
</svg>
