<?xml version="1.0" encoding="iso-8859-1"?>
<!-- Generator: Adobe Illustrator 17.1.0, SVG Export Plug-In . SVG Version: 6.00 Build 0)  -->
<!DOCTYPE svg PUBLIC "-//W3C//DTD SVG 1.1//EN" "http://www.w3.org/Graphics/SVG/1.1/DTD/svg11.dtd">
<svg version="1.1" id="Capa_1" xmlns="http://www.w3.org/2000/svg" xmlns:xlink="http://www.w3.org/1999/xlink" x="0px" y="0px"
	 viewBox="0 0 468 468" style="enable-background:new 0 0 468 468;" xml:space="preserve">
<g>
	<path d="M167,260.808c-12,0-12,20,0,20C167,280.808,180,260.808,167,260.808z"/>
	<path d="M353.73,266.676c2.032-2.887,4.561-6.48,6.975-10.144l0.263-0.398l0.007-0.014c1.134-1.729,2.179-3.382,3.109-4.919
		l0.072-0.118h0c7.913-12.868,4.893-18.27,3.901-20.045c-1.855-3.318-5.264-5.276-9.353-5.276c-2.276,0-4.779,0.738-7.779,1.738
		h-0.279l-1.322,0.84L345,230.462v0.43c-3,1.474-5.513,3.244-8.651,5.349c-10.202,6.839-31.681,17.174-31.896,17.277l-0.095,0.021
		c-1.933-1.231-4.052-2.609-6.243-4.051c-9.535-6.275-21.826-14.355-36.667-20.798c2.23-2.075,3.241-5.122,2.654-8.032
		c-0.614-3.044-2.823-5.458-5.898-6.457l-0.238-0.077c-4.059-1.324-16.411-5.356-30.4-5.356c-7.265,0-13.998,1.087-20.016,3.23
		l-9.855,3.514c-0.745,0.27-1.187,0.431-2.103,0.563c-23.694,0.895-47.128,9.305-66.024,23.705
		c-16.257,12.389-26.762,27.401-26.762,38.246c0,15.929,11.291,24.474,29.507,33.098l2.219,1.051l0.165-0.025
		c7.821,3.471,30.677,13.576,49.443,15.866c0.335,0.163,0.742,0.366,1.101,0.545c5.961,2.968,21.795,10.854,39.253,10.854
		c3.154,0,6.26-0.257,9.23-0.764c4.74-0.809,8.45-1.397,11.43-1.871c4.781-0.76,7.415-1.178,9.361-1.716
		c5.691-1.563,6.933-5.624,7.203-7.298c0.496-3.078-0.783-6.196-3.277-8.092l-0.776-0.619c16.409-5.909,31.626-13.873,43.379-22.766
		c0.161,0.093,0.313,0.181,0.449,0.26c0.855,0.495,1.74,1.007,2.642,1.463c5.468,2.761,43.198,19.37,55.142,19.371h0
		c3.205,0,5.778-0.992,7.65-2.949c2.63-2.739,3.192-6.688,1.464-10.319c-2.354-4.943-6.255-9.177-10.028-13.271
		c-7.831-8.496-11.012-12.867-8.357-18.738C350.479,271.296,352.277,268.741,353.73,266.676z M341.884,296.377
		c-11.187-4.051-24.44-9.57-30.535-12.647c-0.494-0.25-1.147-0.628-1.84-1.029c-2.747-1.59-5.861-3.393-9.389-3.393
		c-2.264,0-4.356,0.731-6.044,2.111c-6.287,5.129-24.075,17.961-53.398,26.308c-3.097,0.875-5.461,3.188-6.326,6.186
		c-0.805,2.794-0.163,5.791,1.715,8.122c-1.538,0.253-3.209,0.532-5.035,0.843c-2.084,0.355-4.285,0.536-6.541,0.536
		c-13.694,0-26.607-6.431-32.121-9.176c-2.433-1.212-3.654-1.82-5.387-2.002c-11.005-1.158-26.465-6.131-45.95-14.778
		c-0.883-0.393-1.57-0.697-2.161-0.93c-20.071-9.546-20.07-14.303-20.07-18.502c0-8.967,29.198-44.315,77.733-45.976l0.713-0.057
		c2.925-0.363,4.714-1.012,5.897-1.441l9.771-3.483c4.287-1.527,9.214-2.302,14.645-2.302c3.927,0,7.746,0.405,11.209,0.982
		c-1.438,2.002-1.978,4.448-1.449,6.828c0.662,2.979,2.877,5.343,5.926,6.321c18.843,6.054,33.924,15.979,46.042,23.954
		c2.818,1.854,5.479,3.605,7.949,5.146c1.893,1.183,4.146,1.807,6.516,1.807c3.544,0,6.563-1.366,7.667-1.937
		c1.993-0.964,22.793-11.077,33.625-18.339c0.671-0.45,1.327-0.885,1.966-1.302c-2.184,3.293-4.495,6.576-6.37,9.24
		c-3.105,4.413-4.394,6.264-5.083,7.748C329.494,278.237,335.459,288.624,341.884,296.377z"/>
	<path d="M191.046,243.54c-3.081,3.168-3.01,8.232,0.157,11.313c4.765,4.635,7.498,11.551,7.498,18.974
		c0,6.466-2.063,12.55-5.81,17.13c-2.797,3.42-2.292,8.46,1.127,11.258c1.486,1.216,3.279,1.808,5.06,1.808
		c2.317,0,4.616-1.002,6.197-2.935c6.078-7.431,9.425-17.112,9.425-27.261c0-11.718-4.499-22.814-12.342-30.442
		C199.192,240.302,194.127,240.372,191.046,243.54z"/>
	<path d="M443.533,77.249l-0.436-0.881c-3.515-7.143-11.746-23.868-36.404-23.868H57.688c-15.964,0-26.828,12.504-30.729,19.893
		C9.322,105.786,0,143.514,0,181.5c0,62.504,24.34,121.267,68.537,165.463C112.733,391.16,171.496,415.5,234,415.5
		c62.504,0,121.266-24.34,165.463-68.537C443.659,302.766,468,244.004,468,181.5C468,144.885,459.768,109.809,443.533,77.249z
		 M44.645,81.732c1.265-2.396,6.376-9.232,13.044-9.232h349.005c12.209,0,15.387,6.456,18.459,12.698l0.482,0.976
		c8.582,17.212,14.701,35.199,18.349,53.782c-5.491,15.697-16.172,23.658-31.752,23.658c-15.293,0-29.306-10.754-34.869-26.76
		c-1.436-4.13-5.31-6.71-9.45-6.708c-0.062-0.002-0.123-0.002-0.184-0.003c-0.069,0.001-0.137,0-0.207,0.003
		c-4.137,0.002-8.007,2.58-9.443,6.708c-5.563,16.006-19.576,26.76-34.869,26.76c-15.293,0-29.306-10.754-34.869-26.76
		c-1.435-4.129-5.307-6.708-9.446-6.708c-0.066-0.002-0.132-0.002-0.198-0.003c-0.064,0.001-0.128,0.001-0.192,0.003
		c-4.139,0-8.011,2.578-9.447,6.708c-5.563,16.006-19.576,26.76-34.869,26.76s-29.306-10.754-34.869-26.76
		c-1.435-4.129-5.307-6.708-9.446-6.708c-0.066-0.002-0.132-0.002-0.198-0.003c-0.064,0.001-0.128,0-0.192,0.003
		c-4.139-0.001-8.012,2.578-9.448,6.708c-5.563,16.006-19.576,26.76-34.869,26.76c-15.293,0-29.306-10.754-34.869-26.76
		c-1.436-4.129-5.308-6.708-9.446-6.708c-0.066-0.002-0.132-0.002-0.198-0.003c-0.064,0.001-0.128,0.001-0.192,0.003
		c-4.139,0-8.012,2.578-9.447,6.708c-5.563,16.006-19.576,26.76-34.869,26.76c-15.615,0-26.311-7.994-31.791-23.762
		c-0.047-0.137-0.108-0.265-0.161-0.398C28.22,119.337,35.084,99.833,44.645,81.732z M234,395.5c-118,0-214-96-214-214
		c0-3.749,0.119-7.493,0.316-11.232c9.271,8.728,21.442,13.346,35.833,13.346c17.485,0,33.778-8.726,44.51-22.885
		c10.732,14.16,27.025,22.885,44.511,22.885c17.485,0,33.778-8.726,44.51-22.885c10.732,14.16,27.025,22.885,44.51,22.885
		s33.778-8.726,44.51-22.885c10.732,14.16,27.025,22.885,44.51,22.885c17.486,0,33.778-8.726,44.511-22.885
		c10.732,14.16,27.025,22.885,44.51,22.885c14.212,0,26.255-4.509,35.482-13.026c0.179,3.621,0.285,7.256,0.285,10.912
		C448,299.5,352,395.5,234,395.5z"/>
</g>
<g>
</g>
<g>
</g>
<g>
</g>
<g>
</g>
<g>
</g>
<g>
</g>
<g>
</g>
<g>
</g>
<g>
</g>
<g>
</g>
<g>
</g>
<g>
</g>
<g>
</g>
<g>
</g>
<g>
</g>
</svg>
